<svg width="24" height="24" viewBox="0 0 24 24" fill="none" xmlns="http://www.w3.org/2000/svg">
<path fill-rule="evenodd" clip-rule="evenodd" d="M14.897 2.84176C15.0959 2.84176 15.2867 2.92077 15.4273 3.06143C15.568 3.20208 15.647 3.39284 15.647 3.59176C15.647 3.79067 15.568 3.98143 15.4273 4.12209C15.2867 4.26274 15.0959 4.34176 14.897 4.34176H7.629C5.121 4.34176 3.499 6.06576 3.499 8.73576V16.8178C3.499 19.5228 5.082 21.2028 7.629 21.2028H16.233C18.741 21.2028 20.362 19.4828 20.362 16.8178V9.77976C20.362 9.58084 20.441 9.39008 20.5817 9.24943C20.7223 9.10877 20.9131 9.02976 21.112 9.02976C21.3109 9.02976 21.5017 9.10877 21.6423 9.24943C21.783 9.39008 21.862 9.58084 21.862 9.77976V16.8198C21.862 20.3398 19.6 22.7038 16.232 22.7038H7.63C4.263 22.7038 2 20.3388 2 16.8188V8.73576C2 5.21076 4.263 2.84176 7.63 2.84176H14.898H14.897ZM17.012 9.67176C17.1692 9.79351 17.2717 9.97273 17.2968 10.17C17.322 10.3673 17.2677 10.5665 17.146 10.7238L14.216 14.5038C14.1557 14.582 14.0804 14.6475 13.9946 14.6964C13.9088 14.7453 13.8141 14.7767 13.716 14.7888C13.6177 14.8016 13.5179 14.7945 13.4224 14.7681C13.3269 14.7416 13.2377 14.6963 13.16 14.6348L10.342 12.4198L7.812 15.7088C7.6908 15.8666 7.51187 15.9698 7.31458 15.9956C7.11729 16.0215 6.9178 15.968 6.76 15.8468C6.6022 15.7256 6.499 15.5466 6.47312 15.3493C6.44724 15.152 6.5008 14.9526 6.622 14.7948L9.615 10.9048C9.67548 10.8262 9.75094 10.7604 9.83702 10.7112C9.92309 10.662 10.0181 10.6303 10.1165 10.618C10.2148 10.6057 10.3147 10.6131 10.4102 10.6397C10.5058 10.6662 10.5951 10.7115 10.673 10.7728L13.493 12.9878L15.96 9.80476C16.02 9.72645 16.0948 9.66082 16.1803 9.61164C16.2658 9.56247 16.3602 9.53073 16.458 9.51827C16.5559 9.50581 16.6552 9.51287 16.7503 9.53904C16.8454 9.56522 16.9343 9.60998 17.012 9.67076V9.67176ZM19.967 1.99976C20.6755 2.00029 21.3548 2.28197 21.8558 2.78295C22.3568 3.28393 22.6385 3.96326 22.639 4.67176C22.6385 5.38034 22.3568 6.05977 21.8559 6.56091C21.3549 7.06206 20.6756 7.34396 19.967 7.34476C19.2585 7.3437 18.5793 7.06171 18.0784 6.56062C17.5775 6.05954 17.2958 5.38026 17.295 4.67176C17.2958 3.96334 17.5776 3.28417 18.0785 2.78324C18.5794 2.28232 19.2586 2.00055 19.967 1.99976V1.99976ZM19.967 3.49976C19.662 3.50867 19.3724 3.6361 19.1598 3.85502C18.9472 4.07393 18.8282 4.36709 18.8282 4.67226C18.8282 4.97742 18.9472 5.27058 19.1598 5.48949C19.3724 5.70841 19.662 5.83585 19.967 5.84476C20.272 5.83585 20.5616 5.70841 20.7742 5.48949C20.9868 5.27058 21.1058 4.97742 21.1058 4.67226C21.1058 4.36709 20.9868 4.07393 20.7742 3.85502C20.5616 3.6361 20.272 3.50867 19.967 3.49976Z" fill="#A5B3CD"/>
</svg>
