<svg width="24" height="25" viewBox="0 0 24 25" fill="none" xmlns="http://www.w3.org/2000/svg">
<path fill-rule="evenodd" clip-rule="evenodd" d="M15.793 1.09448C15.9919 1.09448 16.1827 1.1735 16.3233 1.31415C16.464 1.4548 16.543 1.64557 16.543 1.84448L16.544 2.69248C18.004 2.79248 19.217 3.29248 20.075 4.15248C21.012 5.09348 21.505 6.44648 21.5 8.06948V17.1925C21.5 20.5245 19.384 22.5945 15.979 22.5945H7.521C4.116 22.5945 2 20.4955 2 17.1165V8.06748C2 4.92448 3.887 2.90748 6.965 2.69248V1.84448C6.965 1.64557 7.04402 1.4548 7.18467 1.31415C7.32532 1.1735 7.51609 1.09448 7.715 1.09448C7.91391 1.09448 8.10468 1.1735 8.24533 1.31415C8.38598 1.4548 8.465 1.64557 8.465 1.84448V2.67348H15.043V1.84448C15.043 1.64557 15.122 1.4548 15.2627 1.31415C15.4033 1.1735 15.5941 1.09448 15.793 1.09448V1.09448ZM20 9.99848H3.5V17.1165C3.5 19.6825 4.928 21.0945 7.521 21.0945H15.979C18.572 21.0945 20 19.7085 20 17.1925V9.99848ZM16.201 16.2905C16.3999 16.2905 16.5907 16.3695 16.7313 16.5102C16.872 16.6508 16.951 16.8416 16.951 17.0405C16.951 17.2394 16.872 17.4302 16.7313 17.5708C16.5907 17.7115 16.3999 17.7905 16.201 17.7905C16.0017 17.7905 15.8105 17.7116 15.6693 17.5711C15.528 17.4305 15.4481 17.2398 15.447 17.0405C15.447 16.6265 15.778 16.2905 16.192 16.2905H16.202H16.201ZM11.764 16.2905C11.9629 16.2905 12.1537 16.3695 12.2943 16.5102C12.435 16.6508 12.514 16.8416 12.514 17.0405C12.514 17.2394 12.435 17.4302 12.2943 17.5708C12.1537 17.7115 11.9629 17.7905 11.764 17.7905C11.5647 17.7905 11.3735 17.7116 11.2323 17.5711C11.091 17.4305 11.0111 17.2398 11.01 17.0405C11.01 16.6265 11.34 16.2905 11.755 16.2905H11.764ZM7.317 16.2905C7.51591 16.2905 7.70668 16.3695 7.84733 16.5102C7.98798 16.6508 8.067 16.8416 8.067 17.0405C8.067 17.2394 7.98798 17.4302 7.84733 17.5708C7.70668 17.7115 7.51591 17.7905 7.317 17.7905C7.11762 17.7905 6.92634 17.7116 6.78489 17.5711C6.64345 17.4306 6.56332 17.2399 6.562 17.0405C6.562 16.6265 6.894 16.2905 7.308 16.2905H7.317ZM16.2 12.4045C16.3989 12.4045 16.5897 12.4835 16.7303 12.6242C16.871 12.7648 16.95 12.9556 16.95 13.1545C16.95 13.3534 16.871 13.5442 16.7303 13.6848C16.5897 13.8255 16.3989 13.9045 16.2 13.9045C16.0007 13.9045 15.8095 13.8256 15.6683 13.6851C15.527 13.5445 15.4471 13.3538 15.446 13.1545C15.446 12.7405 15.777 12.4045 16.191 12.4045H16.201H16.2ZM11.763 12.4045C11.9619 12.4045 12.1527 12.4835 12.2933 12.6242C12.434 12.7648 12.513 12.9556 12.513 13.1545C12.513 13.3534 12.434 13.5442 12.2933 13.6848C12.1527 13.8255 11.9619 13.9045 11.763 13.9045C11.5637 13.9045 11.3725 13.8256 11.2313 13.6851C11.09 13.5445 11.0101 13.3538 11.009 13.1545C11.009 12.7405 11.339 12.4045 11.754 12.4045H11.763ZM7.316 12.4045C7.51491 12.4045 7.70568 12.4835 7.84633 12.6242C7.98698 12.7648 8.066 12.9556 8.066 13.1545C8.066 13.3534 7.98698 13.5442 7.84633 13.6848C7.70568 13.8255 7.51491 13.9045 7.316 13.9045C7.11662 13.9045 6.92534 13.8256 6.78389 13.6851C6.64245 13.5446 6.56232 13.3539 6.561 13.1545C6.561 12.7405 6.893 12.4045 7.307 12.4045H7.316ZM15.042 4.17348H8.465V5.13548C8.465 5.33439 8.38598 5.52516 8.24533 5.66581C8.10468 5.80646 7.91391 5.88548 7.715 5.88548C7.51609 5.88548 7.32532 5.80646 7.18467 5.66581C7.04402 5.52516 6.965 5.33439 6.965 5.13548V4.19548C4.725 4.38448 3.5 5.74348 3.5 8.06848V8.49948H20V8.06948C20.004 6.83348 19.672 5.87348 19.013 5.21348C18.435 4.63348 17.589 4.28648 16.544 4.19748V5.13648C16.544 5.33539 16.465 5.52616 16.3243 5.66681C16.1837 5.80746 15.9929 5.88648 15.794 5.88648C15.5951 5.88648 15.4043 5.80746 15.2637 5.66681C15.123 5.52616 15.044 5.33539 15.044 5.13648L15.043 4.17448L15.042 4.17348Z" fill="#A5B3CD"/>
</svg>
