<svg width="22" height="22" viewBox="0 0 22 22" fill="none" xmlns="http://www.w3.org/2000/svg">
<path d="M4.20001 9.45975C4.01001 9.45975 3.81001 9.37975 3.67001 9.23975C3.56583 9.13385 3.4951 8.99964 3.46665 8.85383C3.4382 8.70802 3.45328 8.55706 3.51002 8.41975L5.37001 3.97975C5.41001 3.88975 5.43001 3.82976 5.46001 3.77976C6.94001 0.369755 8.83002 -0.460245 12.17 0.819755C12.36 0.889755 12.51 1.03975 12.59 1.22975C12.67 1.41975 12.67 1.62975 12.59 1.81975L9.66001 8.61975C9.54001 8.89975 9.27002 9.06975 8.97002 9.06975H6.12001C5.55001 9.06975 5.01001 9.17975 4.49001 9.39975C4.40001 9.43975 4.30001 9.45975 4.20001 9.45975V9.45975ZM9.61001 1.74975C8.37001 1.74975 7.61001 2.55975 6.82001 4.39976C6.81001 4.42976 6.79001 4.45975 6.78001 4.48975L5.47001 7.59976C5.69001 7.57976 5.90001 7.56975 6.12001 7.56975H8.47002L10.88 1.96975C10.41 1.81975 9.99001 1.74975 9.61001 1.74975V1.74975Z" fill="#A5B3CD"/>
<path d="M17.29 9.26975C17.22 9.26975 17.14 9.25975 17.07 9.23975C16.69 9.12975 16.29 9.06975 15.87 9.06975H8.97001C8.72001 9.06975 8.48001 8.93975 8.34001 8.72975C8.27403 8.6248 8.23414 8.50557 8.2237 8.38204C8.21326 8.25851 8.23257 8.13428 8.28001 8.01975L11.18 1.28975C11.33 0.92975 11.77 0.67975 12.14 0.80975C12.26 0.84975 12.37 0.89975 12.49 0.94975L14.85 1.93975C16.23 2.50975 17.15 3.10975 17.75 3.82975C17.87 3.96975 17.97 4.11975 18.07 4.27975C18.18 4.44975 18.28 4.64975 18.35 4.85975C18.38 4.92975 18.43 5.05975 18.46 5.19975C18.74 6.14975 18.6 7.30975 18 8.80975C17.9374 8.94585 17.8375 9.06135 17.7118 9.1428C17.5861 9.22424 17.4398 9.26827 17.29 9.26975V9.26975ZM10.11 7.56975H15.88C16.2 7.56975 16.51 7.59975 16.82 7.64975C17.1 6.77975 17.16 6.10975 17 5.56975C16.98 5.47975 16.96 5.43975 16.95 5.39975C16.89 5.23975 16.85 5.14975 16.8 5.06975C16.73 4.95975 16.68 4.86975 16.6 4.77975C16.17 4.25975 15.41 3.77975 14.27 3.30975L12.3 2.48975L10.11 7.56975V7.56975Z" fill="#A5B3CD"/>
<path d="M14.9 21.7497H7.1C6.82 21.7497 6.56 21.7297 6.3 21.6997C2.79 21.4697 0.79 19.4597 0.55 15.9097C0.52 15.6897 0.5 15.4197 0.5 15.1497V13.1997C0.5 10.9497 1.84 8.91975 3.91 8.01975C4.62 7.71975 5.36 7.56975 6.13 7.56975H15.89C16.46 7.56975 17.01 7.64975 17.52 7.80975C19.87 8.51975 21.52 10.7397 21.52 13.1997V15.1497C21.52 15.3697 21.51 15.5797 21.5 15.7797C21.28 19.6897 19 21.7497 14.9 21.7497V21.7497ZM6.12 9.06975C5.55 9.06975 5.01 9.17975 4.49 9.39975C2.97 10.0597 1.99 11.5497 1.99 13.1997V15.1497C1.99 15.3597 2.01 15.5697 2.03 15.7697C2.22 18.6197 3.62 20.0197 6.43 20.2097C6.68 20.2397 6.88 20.2597 7.09 20.2597H14.89C18.19 20.2597 19.81 18.8097 19.97 15.7097C19.98 15.5297 19.99 15.3497 19.99 15.1497V13.1997C19.99 11.3897 18.78 9.76975 17.06 9.23975C16.68 9.12975 16.28 9.06975 15.86 9.06975H6.12V9.06975Z" fill="#A5B3CD"/>
<path d="M1.23999 13.9498C0.82999 13.9498 0.48999 13.6098 0.48999 13.1998V10.2698C0.48999 7.11976 2.71999 4.39976 5.79999 3.79976C6.06999 3.74976 6.34999 3.84976 6.52999 4.05976C6.69999 4.26976 6.74999 4.56976 6.63999 4.81976L4.88999 8.99975C4.81228 9.17562 4.67383 9.31762 4.49999 9.39975C2.97999 10.0598 1.99999 11.5498 1.99999 13.1998C1.98999 13.6098 1.65999 13.9498 1.23999 13.9498ZM4.59999 5.81976C3.95943 6.18088 3.40443 6.6761 2.97295 7.27154C2.54147 7.86698 2.2437 8.54859 2.09999 9.26976C2.53999 8.81976 3.04999 8.43975 3.62999 8.15975L4.59999 5.81976Z" fill="#A5B3CD"/>
<path d="M20.76 13.9497C20.35 13.9497 20.01 13.6097 20.01 13.1997C20.01 11.3897 18.8 9.76975 17.08 9.23975C16.9807 9.21041 16.8886 9.16067 16.8096 9.09369C16.7306 9.02672 16.6665 8.94399 16.6213 8.8508C16.5761 8.75761 16.5509 8.65602 16.5472 8.55252C16.5436 8.44902 16.5615 8.3459 16.6 8.24975C17.07 7.07975 17.19 6.22975 17 5.56975C16.98 5.47975 16.96 5.43975 16.95 5.39975C16.8872 5.25784 16.8698 5.09997 16.9002 4.94779C16.9307 4.79561 17.0074 4.65657 17.12 4.54975C17.35 4.32975 17.7 4.27975 17.98 4.42975C19.0469 4.98646 19.9403 5.82555 20.5628 6.85541C21.1854 7.88528 21.513 9.06636 21.51 10.2697V13.1997C21.51 13.6097 21.17 13.9497 20.76 13.9497ZM18.25 8.08975C18.88 8.37975 19.44 8.78975 19.91 9.27975C19.72 8.29975 19.25 7.40975 18.56 6.70975C18.51 7.12975 18.41 7.58975 18.25 8.08975Z" fill="#A5B3CD"/>
</svg>
