<svg width="24" height="25" viewBox="0 0 24 25" fill="none" xmlns="http://www.w3.org/2000/svg">
<path fill-rule="evenodd" clip-rule="evenodd" d="M10.324 20.2005C10.842 20.7775 11.507 21.0945 12.197 21.0945H12.198C12.891 21.0945 13.559 20.7775 14.078 20.1995C14.2112 20.0516 14.3976 19.9627 14.5963 19.9523C14.795 19.9419 14.9897 20.0108 15.1375 20.144C15.2854 20.2771 15.3743 20.4635 15.3847 20.6622C15.3951 20.8609 15.3262 21.0556 15.193 21.2035C14.385 22.1005 13.323 22.5945 12.198 22.5945H12.196C11.076 22.5935 10.014 22.0995 9.20901 21.2025C9.14322 21.1293 9.09249 21.0438 9.05973 20.951C9.02696 20.8582 9.01279 20.7598 9.01804 20.6615C9.02329 20.5632 9.04784 20.4669 9.0903 20.3781C9.13277 20.2893 9.1923 20.2098 9.26551 20.144C9.33873 20.0782 9.42418 20.0275 9.517 19.9947C9.60981 19.9619 9.70817 19.9478 9.80646 19.953C9.90476 19.9583 10.0011 19.9828 10.0899 20.0253C10.1787 20.0677 10.2582 20.1273 10.324 20.2005ZM12.247 1.09448C16.692 1.09448 19.678 4.55648 19.678 7.78948C19.678 9.45248 20.101 10.1575 20.55 10.9055C20.994 11.6435 21.497 12.4815 21.497 14.0655C21.148 18.1125 16.923 18.4425 12.247 18.4425C7.57101 18.4425 3.34501 18.1125 3.00001 14.1295C2.99701 12.4815 3.50001 11.6435 3.94401 10.9055L4.10101 10.6415C4.48701 9.97848 4.81601 9.25648 4.81601 7.78948C4.81601 4.55648 7.80201 1.09448 12.247 1.09448ZM12.247 2.59448C8.75201 2.59448 6.31701 5.33248 6.31701 7.78948C6.31701 9.86848 5.73901 10.8295 5.22901 11.6775C4.82001 12.3585 4.49701 12.8965 4.49701 14.0655C4.66401 15.9515 5.90901 16.9425 12.247 16.9425C18.55 16.9425 19.834 15.9075 20 14.0005C19.997 12.8965 19.674 12.3585 19.265 11.6775C18.755 10.8295 18.178 9.86848 18.178 7.78948C18.178 5.33248 15.742 2.59448 12.248 2.59448H12.247Z" fill="#A5B3CD"/>
</svg>
