<svg width="24" height="25" viewBox="0 0 24 25" fill="none" xmlns="http://www.w3.org/2000/svg">
<path d="M12 22.8445C11.76 22.8445 11.52 22.8145 11.29 22.7445C6.09997 21.3145 2.33997 16.4645 2.33997 11.2045V6.81448C2.33997 5.69448 3.14997 4.48448 4.18997 4.05448L9.75997 1.77448C11.195 1.18439 12.8049 1.18439 14.24 1.77448L19.81 4.05448C20.85 4.48448 21.66 5.69448 21.66 6.81448V11.2045C21.66 16.4545 17.89 21.3045 12.71 22.7445C12.48 22.8145 12.24 22.8445 12 22.8445ZM12 2.84448C11.4271 2.84472 10.8598 2.95682 10.33 3.17448L4.75997 5.45448C4.27997 5.65448 3.83997 6.30448 3.83997 6.82448V11.2145C3.83997 15.8045 7.13997 20.0445 11.69 21.3045C11.89 21.3645 12.11 21.3645 12.31 21.3045C16.86 20.0445 20.16 15.8045 20.16 11.2145V6.82448C20.16 6.30448 19.72 5.65448 19.24 5.45448L13.67 3.17448C13.1401 2.95682 12.5728 2.84472 12 2.84448Z" fill="#A5B3CD"/>
<path d="M12 13.3445C10.48 13.3445 9.25 12.1145 9.25 10.5945C9.25 9.07448 10.48 7.84448 12 7.84448C13.52 7.84448 14.75 9.07448 14.75 10.5945C14.75 12.1145 13.52 13.3445 12 13.3445ZM12 9.34448C11.6685 9.34448 11.3505 9.47618 11.1161 9.7106C10.8817 9.94502 10.75 10.263 10.75 10.5945C10.75 10.926 10.8817 11.2439 11.1161 11.4784C11.3505 11.7128 11.6685 11.8445 12 11.8445C12.3315 11.8445 12.6495 11.7128 12.8839 11.4784C13.1183 11.2439 13.25 10.926 13.25 10.5945C13.25 10.263 13.1183 9.94502 12.8839 9.7106C12.6495 9.47618 12.3315 9.34448 12 9.34448Z" fill="#A5B3CD"/>
<path d="M12 16.3445C11.59 16.3445 11.25 16.0045 11.25 15.5945V12.5945C11.25 12.1845 11.59 11.8445 12 11.8445C12.41 11.8445 12.75 12.1845 12.75 12.5945V15.5945C12.75 16.0045 12.41 16.3445 12 16.3445Z" fill="#A5B3CD"/>
</svg>
