<svg width="24" height="24" viewBox="0 0 24 24" fill="none" xmlns="http://www.w3.org/2000/svg">
<path d="M12 22.7498C6.07 22.7498 1.25 17.9298 1.25 11.9998C1.25 9.63976 2 7.39976 3.42 5.51976C3.67 5.18976 4.14 5.12976 4.47 5.37976C4.8 5.62976 4.87 6.09976 4.62 6.42976C3.40196 8.03072 2.74481 9.98812 2.75 11.9998C2.75 17.0998 6.9 21.2498 12 21.2498C17.1 21.2498 21.25 17.0998 21.25 11.9998C21.25 6.89976 17.1 2.74976 12 2.74976C11.59 2.74976 11.25 2.40976 11.25 1.99976C11.25 1.58976 11.59 1.24976 12 1.24976C17.93 1.24976 22.75 6.06976 22.75 11.9998C22.75 17.9298 17.93 22.7498 12 22.7498Z" fill="#A5B3CD"/>
<path d="M12 19.7498C7.73 19.7498 4.25 16.2698 4.25 11.9998C4.25 11.5898 4.59 11.2498 5 11.2498C5.41 11.2498 5.75 11.5898 5.75 11.9998C5.75 15.4498 8.55 18.2498 12 18.2498C15.45 18.2498 18.25 15.4498 18.25 11.9998C18.25 8.54976 15.45 5.74976 12 5.74976C11.59 5.74976 11.25 5.40976 11.25 4.99976C11.25 4.58976 11.59 4.24976 12 4.24976C16.27 4.24976 19.75 7.72976 19.75 11.9998C19.75 16.2698 16.27 19.7498 12 19.7498Z" fill="#A5B3CD"/>
<path d="M12 16.7498C11.59 16.7498 11.25 16.4098 11.25 15.9998C11.25 15.5898 11.59 15.2498 12 15.2498C13.79 15.2498 15.25 13.7898 15.25 11.9998C15.25 10.2098 13.79 8.74976 12 8.74976C11.59 8.74976 11.25 8.40976 11.25 7.99976C11.25 7.58976 11.59 7.24976 12 7.24976C14.62 7.24976 16.75 9.37976 16.75 11.9998C16.75 14.6198 14.62 16.7498 12 16.7498Z" fill="#A5B3CD"/>
</svg>
