<svg width="24" height="24" viewBox="0 0 24 24" fill="none" xmlns="http://www.w3.org/2000/svg">
<path d="M5.20001 10.4598C5.01001 10.4598 4.81001 10.3798 4.67001 10.2398C4.56583 10.1339 4.4951 9.99964 4.46665 9.85383C4.4382 9.70802 4.45328 9.55706 4.51002 9.41975L6.37001 4.97975C6.41001 4.88976 6.43001 4.82976 6.46001 4.77976C7.94001 1.36976 9.83002 0.539755 13.17 1.81975C13.36 1.88975 13.51 2.03975 13.59 2.22975C13.67 2.41975 13.67 2.62975 13.59 2.81975L10.66 9.61975C10.54 9.89975 10.27 10.0698 9.97002 10.0698H7.12001C6.55001 10.0698 6.01001 10.1798 5.49001 10.3998C5.40001 10.4398 5.30001 10.4598 5.20001 10.4598ZM10.61 2.74975C9.37001 2.74975 8.61001 3.55975 7.82001 5.39976C7.81001 5.42976 7.79001 5.45975 7.78001 5.48975L6.47001 8.59976C6.69001 8.57976 6.90001 8.56975 7.12001 8.56975H9.47002L11.88 2.96975C11.41 2.81975 10.99 2.74975 10.61 2.74975Z" fill="#A5B3CD"/>
<path d="M18.29 10.2697C18.22 10.2697 18.14 10.2597 18.07 10.2397C17.69 10.1297 17.29 10.0697 16.87 10.0697H9.97001C9.72001 10.0697 9.48001 9.93975 9.34001 9.72975C9.27403 9.6248 9.23414 9.50557 9.2237 9.38204C9.21326 9.25851 9.23257 9.13428 9.28001 9.01975L12.18 2.28975C12.33 1.92975 12.77 1.67975 13.14 1.80975C13.26 1.84975 13.37 1.89975 13.49 1.94975L15.85 2.93975C17.23 3.50975 18.15 4.10975 18.75 4.82975C18.87 4.96975 18.97 5.11975 19.07 5.27975C19.18 5.44975 19.28 5.64975 19.35 5.85975C19.38 5.92975 19.43 6.05975 19.46 6.19975C19.74 7.14975 19.6 8.30975 19 9.80975C18.9374 9.94585 18.8375 10.0614 18.7118 10.1428C18.5861 10.2242 18.4398 10.2683 18.29 10.2697ZM11.11 8.56975H16.88C17.2 8.56975 17.51 8.59975 17.82 8.64975C18.1 7.77975 18.16 7.10975 18 6.56975C17.98 6.47975 17.96 6.43975 17.95 6.39975C17.89 6.23975 17.85 6.14975 17.8 6.06975C17.73 5.95975 17.68 5.86975 17.6 5.77975C17.17 5.25975 16.41 4.77975 15.27 4.30975L13.3 3.48975L11.11 8.56975Z" fill="#A5B3CD"/>
<path d="M15.9 22.7497H8.1C7.82 22.7497 7.56 22.7297 7.3 22.6997C3.79 22.4697 1.79 20.4597 1.55 16.9097C1.52 16.6897 1.5 16.4197 1.5 16.1497V14.1997C1.5 11.9497 2.84 9.91975 4.91 9.01975C5.62 8.71975 6.36 8.56975 7.13 8.56975H16.89C17.46 8.56975 18.01 8.64975 18.52 8.80975C20.87 9.51975 22.52 11.7397 22.52 14.1997V16.1497C22.52 16.3697 22.51 16.5797 22.5 16.7797C22.28 20.6897 20 22.7497 15.9 22.7497ZM7.12 10.0697C6.55 10.0697 6.01 10.1797 5.49 10.3997C3.97 11.0597 2.99 12.5497 2.99 14.1997V16.1497C2.99 16.3597 3.01 16.5697 3.03 16.7697C3.22 19.6197 4.62 21.0197 7.43 21.2097C7.68 21.2397 7.88 21.2597 8.09 21.2597H15.89C19.19 21.2597 20.81 19.8097 20.97 16.7097C20.98 16.5297 20.99 16.3497 20.99 16.1497V14.1997C20.99 12.3897 19.78 10.7697 18.06 10.2397C17.68 10.1297 17.28 10.0697 16.86 10.0697H7.12Z" fill="#A5B3CD"/>
<path d="M2.23999 14.9498C1.82999 14.9498 1.48999 14.6098 1.48999 14.1998V11.2698C1.48999 8.11976 3.71999 5.39976 6.79999 4.79976C7.06999 4.74976 7.34999 4.84976 7.52999 5.05976C7.69999 5.26976 7.74999 5.56976 7.63999 5.81976L5.88999 9.99975C5.81228 10.1756 5.67383 10.3176 5.49999 10.3998C3.97999 11.0598 2.99999 12.5498 2.99999 14.1998C2.98999 14.6098 2.65999 14.9498 2.23999 14.9498ZM5.59999 6.81976C4.95943 7.18088 4.40443 7.6761 3.97295 8.27154C3.54147 8.86698 3.2437 9.54859 3.09999 10.2698C3.53999 9.81976 4.04999 9.43975 4.62999 9.15975L5.59999 6.81976Z" fill="#A5B3CD"/>
<path d="M21.76 14.9497C21.35 14.9497 21.01 14.6097 21.01 14.1997C21.01 12.3897 19.8 10.7697 18.08 10.2397C17.9807 10.2104 17.8886 10.1607 17.8096 10.0937C17.7306 10.0267 17.6665 9.94399 17.6213 9.8508C17.5761 9.75761 17.5509 9.65602 17.5472 9.55252C17.5436 9.44902 17.5615 9.3459 17.6 9.24975C18.07 8.07975 18.19 7.22975 18 6.56975C17.98 6.47975 17.96 6.43975 17.95 6.39975C17.8872 6.25784 17.8698 6.09997 17.9002 5.94779C17.9307 5.79561 18.0074 5.65657 18.12 5.54975C18.35 5.32975 18.7 5.27975 18.98 5.42975C20.0469 5.98646 20.9403 6.82555 21.5628 7.85541C22.1854 8.88528 22.513 10.0664 22.51 11.2697V14.1997C22.51 14.6097 22.17 14.9497 21.76 14.9497ZM19.25 9.08975C19.88 9.37975 20.44 9.78975 20.91 10.2797C20.72 9.29975 20.25 8.40975 19.56 7.70975C19.51 8.12975 19.41 8.58975 19.25 9.08975Z" fill="#A5B3CD"/>
</svg>
